# xmcd
#
# Track frame offsets: 
#        182
#        12782
#        26752
#        39055
#        53437
#        65965
#        78887
#        93190
#        105970
#        121792
#        133135
#        146047
#
# Disc length: 2142 seconds
#
# Revision: 4
# Processed by: cddbd v1.5.1PL2 Copyright (c) Steve Scherf et al.
# Submitted via: ExactAudioCopy v0.95b4
#
DISCID=8e085c0c
DTITLE=Various Artist - Soul Hits Of The '70s Didn't It Blow Your Mind, Vol. 
DTITLE=5
DYEAR=1900
DGENRE=Soul
TTITLE0=The Honey Cone - Want Ads
TTITLE1=The 8th Day - She's Not Just Another Woman
TTITLE2=Paul Humphrey and His Cool Aid Chemist - Cool Aid
TTITLE3=The Chit-Lites - Are You My Woman? (Tell Me So)
TTITLE4=Cornelius Brothers and Sister Rose - Treat Her Like A Lady
TTITLE5=King Floyd - Baby Let Me Kiss You
TTITLE6=The Beginning of the End - Funky Nassau (Part 1)
TTITLE7=Dave and Ansil Collins - Double Barrel
TTITLE8=Freda Payne - Bring The Boys Home
TTITLE9=Jean Knight - Mr. Big Stuff
TTITLE10=The Honey Cone - Stick-Up
TTITLE11=The Disputed Truth - Smiling Faces Sometimes
EXTD=
EXTT0=1971
EXTT1=1971
EXTT2=1971
EXTT3=1971
EXTT4=1971
EXTT5=1971
EXTT6=1971
EXTT7=1971
EXTT8=1971
EXTT9=1971
EXTT10=1971
EXTT11=1971
PLAYORDER=
